<?xml version="1.0" encoding="utf-8"?>
<!-- Generator: Adobe Illustrator 17.0.0, SVG Export Plug-In . SVG Version: 6.00 Build 0)  -->
<!DOCTYPE svg PUBLIC "-//W3C//DTD SVG 1.1//EN" "http://www.w3.org/Graphics/SVG/1.1/DTD/svg11.dtd">
<svg version="1.1" xmlns="http://www.w3.org/2000/svg" xmlns:xlink="http://www.w3.org/1999/xlink" x="0px" y="0px"
	 width="350.25px" height="100px" viewBox="0 0 350.25 100" enable-background="new 0 0 350.25 100" xml:space="preserve">
<g id="Layer_1">
	<g>
		<path fill="#FFFFFF" d="M130.704,25.343l-8.63,8.63c-0.112,0.112-0.278,0.186-0.427,0.186s-0.315-0.074-0.427-0.186l-0.925-0.925
			c-0.112-0.112-0.186-0.261-0.186-0.427c0-0.149,0.074-0.315,0.186-0.427l7.279-7.279l-7.279-7.279
			c-0.112-0.112-0.186-0.278-0.186-0.427c0-0.149,0.074-0.315,0.186-0.427l0.925-0.925c0.112-0.112,0.278-0.186,0.427-0.186
			s0.315,0.074,0.427,0.186l8.63,8.63c0.112,0.112,0.186,0.278,0.186,0.427S130.816,25.231,130.704,25.343z"/>
	</g>
	<g>
		<path fill="#FFFFFF" d="M68.877,24.917c0-0.149,0.074-0.315,0.186-0.427l8.63-8.63c0.112-0.112,0.278-0.186,0.427-0.186
			c0.149,0,0.315,0.074,0.427,0.186l0.925,0.925c0.112,0.112,0.186,0.278,0.186,0.427c0,0.149-0.074,0.315-0.186,0.427l-7.279,7.279
			l7.279,7.279c0.112,0.112,0.186,0.278,0.186,0.427c0,0.166-0.074,0.315-0.186,0.427l-0.925,0.925
			c-0.112,0.112-0.278,0.186-0.427,0.186c-0.149,0-0.315-0.074-0.427-0.186l-8.63-8.63C68.951,25.231,68.877,25.065,68.877,24.917z"
			/>
	</g>
	<g>
		<path fill="#FFFFFF" d="M182.486,25.022c0-0.502-0.262-0.959-0.698-1.199l-11.858-6.975c-0.414-0.261-0.959-0.261-1.395-0.021
			c-0.436,0.261-0.698,0.719-0.698,1.22v13.951c0,0.502,0.262,0.959,0.698,1.22c0.218,0.109,0.458,0.175,0.698,0.175
			c0.24,0,0.48-0.065,0.698-0.196l11.858-6.975C182.224,25.982,182.486,25.524,182.486,25.022z"/>
	</g>
	<g>
		<path fill="#FFFFFF" d="M223.694,32.439c0,0.373-0.309,0.682-0.682,0.682h-5.457c-0.373,0-0.682-0.309-0.682-0.682V17.432
			c0-0.373,0.309-0.682,0.682-0.682h5.457c0.373,0,0.682,0.309,0.682,0.682V32.439z M233.243,32.439
			c0,0.373-0.309,0.682-0.682,0.682h-5.457c-0.373,0-0.682-0.309-0.682-0.682V17.432c0-0.373,0.309-0.682,0.682-0.682h5.457
			c0.373,0,0.682,0.309,0.682,0.682V32.439z"/>
	</g>
	<g>
		<path fill="#FFFFFF" d="M274.788,26.969l-3.495,3.495l1.516,1.516c0.126,0.126,0.2,0.295,0.2,0.473
			c0,0.368-0.305,0.674-0.674,0.674h-4.717c-0.368,0-0.674-0.305-0.674-0.674v-4.717c0-0.368,0.305-0.674,0.674-0.674
			c0.18,0,0.347,0.074,0.474,0.2l1.515,1.516l3.496-3.495c0.063-0.064,0.158-0.106,0.241-0.106c0.084,0,0.18,0.042,0.243,0.106
			l1.2,1.199c0.063,0.064,0.106,0.158,0.106,0.243S274.851,26.905,274.788,26.969z M283.116,22.347c0,0.368-0.305,0.674-0.674,0.674
			c-0.18,0-0.347-0.074-0.474-0.2l-1.515-1.516l-3.496,3.495c-0.063,0.064-0.158,0.106-0.241,0.106c-0.084,0-0.18-0.042-0.242-0.106
			l-1.2-1.199c-0.063-0.064-0.106-0.158-0.106-0.243s0.043-0.179,0.106-0.243l3.495-3.495l-1.516-1.516
			c-0.126-0.126-0.2-0.295-0.2-0.473c0-0.368,0.305-0.674,0.674-0.674h4.717c0.368,0,0.674,0.305,0.674,0.674V22.347z"/>
	</g>
	<g>
		<path fill="#FFFFFF" d="M325,30.524c0,0.375-0.311,0.685-0.685,0.685c-0.183,0-0.353-0.075-0.482-0.204l-1.541-1.541l-3.556,3.554
			c-0.064,0.065-0.161,0.108-0.245,0.108c-0.086,0-0.183-0.043-0.247-0.108l-1.221-1.22c-0.064-0.065-0.108-0.161-0.108-0.247
			c0-0.086,0.044-0.182,0.108-0.247l3.554-3.554l-1.542-1.542c-0.128-0.128-0.203-0.3-0.203-0.482c0-0.375,0.311-0.685,0.685-0.685
			h4.797c0.375,0,0.685,0.311,0.685,0.685V30.524z M332.976,18.778l-3.554,3.554l1.542,1.542c0.128,0.128,0.203,0.3,0.203,0.482
			c0,0.375-0.311,0.685-0.685,0.685h-4.797c-0.375,0-0.685-0.311-0.685-0.685V19.56c0-0.375,0.311-0.685,0.685-0.685
			c0.183,0,0.353,0.075,0.482,0.204l1.541,1.541l3.556-3.554c0.064-0.065,0.161-0.108,0.245-0.108c0.086,0,0.183,0.043,0.247,0.108
			l1.221,1.22c0.064,0.065,0.108,0.161,0.108,0.247C333.084,18.618,333.04,18.714,332.976,18.778z"/>
	</g>
	<g>
		<g>
			<path fill="#FFFFFF" d="M26.265,25.427l-8.63,8.63c-0.112,0.112-0.278,0.186-0.427,0.186c-0.149,0-0.315-0.074-0.427-0.186
				l-0.925-0.925c-0.112-0.112-0.186-0.261-0.186-0.427c0-0.149,0.074-0.315,0.186-0.427L23.136,25l-7.279-7.279
				c-0.112-0.112-0.186-0.278-0.186-0.427s0.074-0.315,0.186-0.427l0.925-0.925c0.112-0.112,0.278-0.186,0.427-0.186
				c0.149,0,0.315,0.074,0.427,0.186l8.63,8.63c0.112,0.112,0.186,0.278,0.186,0.427C26.452,25.149,26.377,25.315,26.265,25.427z"/>
		</g>
		<g>
			<path fill="#FFFFFF" d="M23.548,25c0-0.149,0.074-0.315,0.186-0.427l8.63-8.63c0.112-0.112,0.278-0.186,0.427-0.186
				s0.315,0.074,0.427,0.186l0.925,0.925c0.112,0.112,0.186,0.278,0.186,0.427c0,0.149-0.074,0.315-0.186,0.427L26.864,25
				l7.279,7.279c0.112,0.112,0.186,0.278,0.186,0.427c0,0.166-0.074,0.315-0.186,0.427l-0.925,0.925
				c-0.112,0.112-0.278,0.186-0.427,0.186s-0.315-0.074-0.427-0.186l-8.63-8.63C23.623,25.315,23.548,25.149,23.548,25z"/>
		</g>
	</g>
	<g>
		<path fill="#1E1E1E" d="M130.704,75.305l-8.63,8.63c-0.112,0.112-0.278,0.186-0.427,0.186s-0.315-0.074-0.427-0.186l-0.925-0.925
			c-0.112-0.112-0.186-0.261-0.186-0.427c0-0.149,0.074-0.315,0.186-0.427l7.279-7.279l-7.279-7.279
			c-0.112-0.112-0.186-0.278-0.186-0.427c0-0.149,0.074-0.315,0.186-0.427l0.925-0.925c0.112-0.112,0.278-0.186,0.427-0.186
			s0.315,0.074,0.427,0.186l8.63,8.63c0.112,0.112,0.186,0.278,0.186,0.427C130.891,75.026,130.816,75.193,130.704,75.305z"/>
	</g>
	<g>
		<path fill="#1E1E1E" d="M68.877,74.878c0-0.149,0.074-0.315,0.186-0.427l8.63-8.63c0.112-0.112,0.278-0.186,0.427-0.186
			c0.149,0,0.315,0.074,0.427,0.186l0.925,0.925c0.112,0.112,0.186,0.278,0.186,0.427c0,0.149-0.074,0.315-0.186,0.427l-7.279,7.279
			l7.279,7.279c0.112,0.112,0.186,0.278,0.186,0.427c0,0.166-0.074,0.315-0.186,0.427l-0.925,0.925
			c-0.112,0.112-0.278,0.186-0.427,0.186c-0.149,0-0.315-0.074-0.427-0.186l-8.63-8.63C68.951,75.193,68.877,75.027,68.877,74.878z"
			/>
	</g>
	<g>
		<path fill="#1E1E1E" d="M182.486,74.984c0-0.502-0.262-0.959-0.698-1.199l-11.858-6.975c-0.414-0.261-0.959-0.261-1.395-0.021
			c-0.436,0.261-0.698,0.719-0.698,1.22v13.951c0,0.502,0.262,0.959,0.698,1.22c0.218,0.109,0.458,0.175,0.698,0.175
			c0.24,0,0.48-0.065,0.698-0.196l11.858-6.975C182.224,75.943,182.486,75.485,182.486,74.984z"/>
	</g>
	<g>
		<path fill="#1E1E1E" d="M223.694,82.4c0,0.373-0.309,0.682-0.682,0.682h-5.457c-0.373,0-0.682-0.309-0.682-0.682V67.394
			c0-0.373,0.309-0.682,0.682-0.682h5.457c0.373,0,0.682,0.309,0.682,0.682V82.4z M233.243,82.4c0,0.373-0.309,0.682-0.682,0.682
			h-5.457c-0.373,0-0.682-0.309-0.682-0.682V67.394c0-0.373,0.309-0.682,0.682-0.682h5.457c0.373,0,0.682,0.309,0.682,0.682V82.4z"
			/>
	</g>
	<g>
		<path fill="#1E1E1E" d="M274.788,76.93l-3.495,3.495l1.516,1.516c0.126,0.126,0.2,0.295,0.2,0.473
			c0,0.368-0.305,0.674-0.674,0.674h-4.717c-0.368,0-0.674-0.305-0.674-0.674v-4.717c0-0.368,0.305-0.674,0.674-0.674
			c0.18,0,0.347,0.074,0.474,0.2l1.515,1.516l3.496-3.495c0.063-0.064,0.158-0.106,0.241-0.106c0.084,0,0.18,0.042,0.243,0.106
			l1.2,1.199c0.063,0.064,0.106,0.158,0.106,0.243C274.894,76.772,274.851,76.866,274.788,76.93z M283.116,72.308
			c0,0.368-0.305,0.674-0.674,0.674c-0.18,0-0.347-0.074-0.474-0.2l-1.515-1.516l-3.496,3.495c-0.063,0.064-0.158,0.106-0.241,0.106
			c-0.084,0-0.18-0.042-0.242-0.106l-1.2-1.199c-0.063-0.064-0.106-0.158-0.106-0.243c0-0.084,0.043-0.179,0.106-0.243l3.495-3.495
			l-1.516-1.516c-0.126-0.126-0.2-0.295-0.2-0.473c0-0.368,0.305-0.674,0.674-0.674h4.717c0.368,0,0.674,0.305,0.674,0.674V72.308z"
			/>
	</g>
	<g>
		<path fill="#1E1E1E" d="M325,80.485c0,0.375-0.311,0.685-0.685,0.685c-0.183,0-0.353-0.075-0.482-0.204l-1.541-1.541l-3.556,3.554
			c-0.064,0.065-0.161,0.108-0.245,0.108c-0.086,0-0.183-0.043-0.247-0.108l-1.221-1.22c-0.064-0.065-0.108-0.161-0.108-0.247
			c0-0.086,0.044-0.182,0.108-0.247l3.554-3.554l-1.542-1.542c-0.128-0.128-0.203-0.3-0.203-0.482c0-0.375,0.311-0.685,0.685-0.685
			h4.797c0.375,0,0.685,0.311,0.685,0.685V80.485z M332.976,68.74l-3.554,3.554l1.542,1.542c0.128,0.128,0.203,0.3,0.203,0.482
			c0,0.375-0.311,0.685-0.685,0.685h-4.797c-0.375,0-0.685-0.311-0.685-0.685v-4.797c0-0.375,0.311-0.685,0.685-0.685
			c0.183,0,0.353,0.075,0.482,0.204l1.541,1.541l3.556-3.554c0.064-0.065,0.161-0.108,0.245-0.108c0.086,0,0.183,0.043,0.247,0.108
			l1.221,1.22c0.064,0.065,0.108,0.161,0.108,0.247C333.084,68.579,333.04,68.675,332.976,68.74z"/>
	</g>
	<g>
		<g>
			<path fill="#1E1E1E" d="M26.265,75.388l-8.63,8.63c-0.112,0.112-0.278,0.186-0.427,0.186c-0.149,0-0.315-0.074-0.427-0.186
				l-0.925-0.925c-0.112-0.112-0.186-0.261-0.186-0.427c0-0.149,0.074-0.315,0.186-0.427l7.279-7.279l-7.279-7.279
				c-0.112-0.112-0.186-0.278-0.186-0.427c0-0.149,0.074-0.315,0.186-0.427l0.925-0.925c0.112-0.112,0.278-0.186,0.427-0.186
				c0.149,0,0.315,0.074,0.427,0.186l8.63,8.63c0.112,0.112,0.186,0.278,0.186,0.427C26.452,75.11,26.377,75.276,26.265,75.388z"/>
		</g>
		<g>
			<path fill="#1E1E1E" d="M23.548,74.961c0-0.149,0.074-0.315,0.186-0.427l8.63-8.63c0.112-0.112,0.278-0.186,0.427-0.186
				s0.315,0.074,0.427,0.186l0.925,0.925c0.112,0.112,0.186,0.278,0.186,0.427c0,0.149-0.074,0.315-0.186,0.427l-7.279,7.279
				l7.279,7.279c0.112,0.112,0.186,0.278,0.186,0.427c0,0.166-0.074,0.315-0.186,0.427l-0.925,0.925
				c-0.112,0.112-0.278,0.186-0.427,0.186s-0.315-0.074-0.427-0.186l-8.63-8.63C23.623,75.276,23.548,75.11,23.548,74.961z"/>
		</g>
	</g>
</g>
<g id="Layer_2">
</g>
</svg>
